<mxfile host="app.diagrams.net" agent="Mozilla/5.0 (X11; Linux x86_64) AppleWebKit/537.36 (KHTML, like Gecko) Chrome/134.0.0.0 Safari/537.36" version="26.1.1">
  <diagram name="Page-1" id="2_DsXJcMFA6abNj_zJDH">
    <mxGraphModel dx="3526" dy="1394" grid="1" gridSize="10" guides="1" tooltips="1" connect="1" arrows="1" fold="1" page="1" pageScale="1" pageWidth="827" pageHeight="1169" math="0" shadow="0">
      <root>
        <mxCell id="0" />
        <mxCell id="1" parent="0" />
        <mxCell id="LrcGKMAgqEGhQ38v0Edy-1" value="IPBlockchainProContract" style="whiteSpace=wrap;strokeWidth=2;" vertex="1" parent="1">
          <mxGeometry x="20" y="197" width="2160" height="383" as="geometry" />
        </mxCell>
        <mxCell id="LrcGKMAgqEGhQ38v0Edy-2" value="Helper Functions" style="whiteSpace=wrap;strokeWidth=2;" vertex="1" parent="1">
          <mxGeometry x="40" y="451" width="1590" height="104" as="geometry" />
        </mxCell>
        <mxCell id="LrcGKMAgqEGhQ38v0Edy-3" value="Buyer Functions" style="whiteSpace=wrap;strokeWidth=2;" vertex="1" parent="1">
          <mxGeometry x="56" y="222" width="595" height="179" as="geometry" />
        </mxCell>
        <mxCell id="LrcGKMAgqEGhQ38v0Edy-4" value="Owner Functions" style="whiteSpace=wrap;strokeWidth=2;" vertex="1" parent="1">
          <mxGeometry x="1077" y="222" width="1082" height="179" as="geometry" />
        </mxCell>
        <mxCell id="LrcGKMAgqEGhQ38v0Edy-5" value="Admin Functions" style="whiteSpace=wrap;strokeWidth=2;verticalAlign=top;" vertex="1" parent="1">
          <mxGeometry x="686" y="247" width="356" height="129" as="geometry" />
        </mxCell>
        <mxCell id="LrcGKMAgqEGhQ38v0Edy-6" value="revokeIP" style="whiteSpace=wrap;strokeWidth=2;" vertex="1" parent="LrcGKMAgqEGhQ38v0Edy-5">
          <mxGeometry x="43" y="46" width="122" height="54" as="geometry" />
        </mxCell>
        <mxCell id="LrcGKMAgqEGhQ38v0Edy-7" value="verifyIP" style="whiteSpace=wrap;strokeWidth=2;" vertex="1" parent="LrcGKMAgqEGhQ38v0Edy-5">
          <mxGeometry x="215" y="46" width="115" height="54" as="geometry" />
        </mxCell>
        <mxCell id="LrcGKMAgqEGhQ38v0Edy-8" value="Entities" style="whiteSpace=wrap;strokeWidth=2;" vertex="1" parent="1">
          <mxGeometry x="45" y="20" width="1572" height="104" as="geometry" />
        </mxCell>
        <mxCell id="LrcGKMAgqEGhQ38v0Edy-9" value="Government Admin" style="whiteSpace=wrap;strokeWidth=2;" vertex="1" parent="1">
          <mxGeometry x="766" y="45" width="197" height="54" as="geometry" />
        </mxCell>
        <mxCell id="LrcGKMAgqEGhQ38v0Edy-10" value="Patent Owner" style="whiteSpace=wrap;strokeWidth=2;" vertex="1" parent="1">
          <mxGeometry x="1425" y="45" width="158" height="54" as="geometry" />
        </mxCell>
        <mxCell id="LrcGKMAgqEGhQ38v0Edy-11" value="Patent Buyer" style="whiteSpace=wrap;strokeWidth=2;" vertex="1" parent="1">
          <mxGeometry x="80" y="45" width="152" height="54" as="geometry" />
        </mxCell>
        <mxCell id="LrcGKMAgqEGhQ38v0Edy-12" value="publishIP" style="whiteSpace=wrap;strokeWidth=2;" vertex="1" parent="1">
          <mxGeometry x="1441" y="284" width="124" height="54" as="geometry" />
        </mxCell>
        <mxCell id="LrcGKMAgqEGhQ38v0Edy-13" value="startAuctionIP" style="whiteSpace=wrap;strokeWidth=2;" vertex="1" parent="1">
          <mxGeometry x="1112" y="284" width="162" height="54" as="geometry" />
        </mxCell>
        <mxCell id="LrcGKMAgqEGhQ38v0Edy-14" value="endAuctionIP" style="whiteSpace=wrap;strokeWidth=2;" vertex="1" parent="1">
          <mxGeometry x="1616" y="284" width="154" height="54" as="geometry" />
        </mxCell>
        <mxCell id="LrcGKMAgqEGhQ38v0Edy-15" value="extendIP" style="whiteSpace=wrap;strokeWidth=2;" vertex="1" parent="1">
          <mxGeometry x="1820" y="284" width="123" height="54" as="geometry" />
        </mxCell>
        <mxCell id="LrcGKMAgqEGhQ38v0Edy-16" value="getIpPrice" style="whiteSpace=wrap;strokeWidth=2;" vertex="1" parent="1">
          <mxGeometry x="1993" y="284" width="132" height="54" as="geometry" />
        </mxCell>
        <mxCell id="LrcGKMAgqEGhQ38v0Edy-17" value="transferIP" style="whiteSpace=wrap;strokeWidth=2;" vertex="1" parent="1">
          <mxGeometry x="91" y="284" width="130" height="54" as="geometry" />
        </mxCell>
        <mxCell id="LrcGKMAgqEGhQ38v0Edy-18" value="searchIP" style="whiteSpace=wrap;strokeWidth=2;" vertex="1" parent="1">
          <mxGeometry x="272" y="284" width="120" height="54" as="geometry" />
        </mxCell>
        <mxCell id="LrcGKMAgqEGhQ38v0Edy-19" value="getAuctionedIPs" style="whiteSpace=wrap;strokeWidth=2;" vertex="1" parent="1">
          <mxGeometry x="442" y="284" width="175" height="54" as="geometry" />
        </mxCell>
        <mxCell id="LrcGKMAgqEGhQ38v0Edy-20" value="getIPOwner" style="whiteSpace=wrap;strokeWidth=2;" vertex="1" parent="1">
          <mxGeometry x="202" y="476" width="143" height="54" as="geometry" />
        </mxCell>
        <mxCell id="LrcGKMAgqEGhQ38v0Edy-21" value="isUserRegistered" style="whiteSpace=wrap;strokeWidth=2;" vertex="1" parent="1">
          <mxGeometry x="1007" y="476" width="178" height="54" as="geometry" />
        </mxCell>
        <mxCell id="LrcGKMAgqEGhQ38v0Edy-22" value="addressSet" style="whiteSpace=wrap;strokeWidth=2;" vertex="1" parent="1">
          <mxGeometry x="1245" y="476" width="137" height="54" as="geometry" />
        </mxCell>
        <mxCell id="LrcGKMAgqEGhQ38v0Edy-23" value="compareString" style="whiteSpace=wrap;strokeWidth=2;" vertex="1" parent="1">
          <mxGeometry x="1432" y="476" width="164" height="54" as="geometry" />
        </mxCell>
        <mxCell id="LrcGKMAgqEGhQ38v0Edy-24" value="" style="curved=1;startArrow=none;endArrow=block;exitX=0.43;exitY=1;entryX=0;entryY=0.02;rounded=0;" edge="1" parent="1" source="LrcGKMAgqEGhQ38v0Edy-17" target="LrcGKMAgqEGhQ38v0Edy-20">
          <mxGeometry relative="1" as="geometry">
            <Array as="points">
              <mxPoint x="126" y="401" />
              <mxPoint x="126" y="451" />
            </Array>
          </mxGeometry>
        </mxCell>
        <mxCell id="LrcGKMAgqEGhQ38v0Edy-25" value="" style="curved=1;startArrow=none;endArrow=block;exitX=1;exitY=0.96;entryX=0;entryY=0.17;rounded=0;" edge="1" parent="1" source="LrcGKMAgqEGhQ38v0Edy-17" target="LrcGKMAgqEGhQ38v0Edy-21">
          <mxGeometry relative="1" as="geometry">
            <Array as="points">
              <mxPoint x="394" y="401" />
              <mxPoint x="827" y="426" />
              <mxPoint x="827" y="451" />
            </Array>
          </mxGeometry>
        </mxCell>
        <mxCell id="LrcGKMAgqEGhQ38v0Edy-26" value="" style="curved=1;startArrow=none;endArrow=block;exitX=0.01;exitY=1;entryX=1;entryY=0.07;rounded=0;" edge="1" parent="1" source="LrcGKMAgqEGhQ38v0Edy-12" target="LrcGKMAgqEGhQ38v0Edy-21">
          <mxGeometry relative="1" as="geometry">
            <Array as="points">
              <mxPoint x="1300" y="401" />
              <mxPoint x="1300" y="451" />
            </Array>
          </mxGeometry>
        </mxCell>
        <mxCell id="LrcGKMAgqEGhQ38v0Edy-27" value="" style="curved=1;startArrow=none;endArrow=block;exitX=0.53;exitY=1;entryX=0.5;entryY=-0.01;rounded=0;" edge="1" parent="1" source="LrcGKMAgqEGhQ38v0Edy-12" target="LrcGKMAgqEGhQ38v0Edy-23">
          <mxGeometry relative="1" as="geometry">
            <Array as="points">
              <mxPoint x="1514" y="401" />
            </Array>
          </mxGeometry>
        </mxCell>
        <mxCell id="LrcGKMAgqEGhQ38v0Edy-28" value="" style="curved=1;startArrow=none;endArrow=block;exitX=0.5;exitY=1;entryX=1;entryY=0.36;rounded=0;" edge="1" parent="1" source="LrcGKMAgqEGhQ38v0Edy-13" target="LrcGKMAgqEGhQ38v0Edy-20">
          <mxGeometry relative="1" as="geometry">
            <Array as="points">
              <mxPoint x="1193" y="401" />
              <mxPoint x="807" y="426" />
              <mxPoint x="807" y="451" />
            </Array>
          </mxGeometry>
        </mxCell>
        <mxCell id="LrcGKMAgqEGhQ38v0Edy-29" value="Requires admin role" style="curved=1;startArrow=none;endArrow=block;exitX=0.5;exitY=1;entryX=0.5;entryY=0;rounded=0;" edge="1" parent="1" source="LrcGKMAgqEGhQ38v0Edy-9" target="LrcGKMAgqEGhQ38v0Edy-5">
          <mxGeometry relative="1" as="geometry">
            <Array as="points" />
          </mxGeometry>
        </mxCell>
        <mxCell id="LrcGKMAgqEGhQ38v0Edy-30" value="Requires IP ownership" style="curved=1;startArrow=none;endArrow=block;rounded=0;" edge="1" parent="1" source="LrcGKMAgqEGhQ38v0Edy-10" target="LrcGKMAgqEGhQ38v0Edy-4">
          <mxGeometry relative="1" as="geometry">
            <Array as="points" />
          </mxGeometry>
        </mxCell>
        <mxCell id="LrcGKMAgqEGhQ38v0Edy-31" value="Anyone can access" style="curved=1;startArrow=none;endArrow=block;rounded=0;" edge="1" parent="1" source="LrcGKMAgqEGhQ38v0Edy-11" target="LrcGKMAgqEGhQ38v0Edy-3">
          <mxGeometry relative="1" as="geometry">
            <Array as="points" />
          </mxGeometry>
        </mxCell>
      </root>
    </mxGraphModel>
  </diagram>
</mxfile>
